<svg width="32" height="32" viewBox="0 0 32 32" fill="none" xmlns="http://www.w3.org/2000/svg">
<rect width="32" height="32" rx="5" fill="#5D00D7"/>
<path fill-rule="evenodd" clip-rule="evenodd" d="M6.25 7.6C6.25 6.85442 6.85442 6.25 7.6 6.25H24.4C25.1456 6.25 25.75 6.85442 25.75 7.6V21.4C25.75 22.1456 25.1456 22.75 24.4 22.75H20.3241L16.9831 26.2998C16.45 26.8661 15.55 26.8661 15.0169 26.2998L11.6759 22.75H7.6C6.85442 22.75 6.25 22.1456 6.25 21.4V7.6ZM7.75 7.75V21.25H11.7408C12.113 21.25 12.4687 21.4037 12.7238 21.6748L16 25.1557L19.2762 21.6748C19.5313 21.4037 19.887 21.25 20.2592 21.25H24.25V7.75H7.75Z" fill="white"/>
<path fill-rule="evenodd" clip-rule="evenodd" d="M16 10.25C16.2728 10.25 16.524 10.3981 16.6561 10.6367L17.9772 13.0228L20.3633 14.3439C20.6019 14.476 20.75 14.7272 20.75 15C20.75 15.2728 20.6019 15.524 20.3633 15.6561L17.9772 16.9772L16.6561 19.3633C16.524 19.6019 16.2728 19.75 16 19.75C15.7272 19.75 15.476 19.6019 15.3439 19.3633L14.0228 16.9772L11.6367 15.6561C11.3981 15.524 11.25 15.2728 11.25 15C11.25 14.7272 11.3981 14.476 11.6367 14.3439L14.0228 13.0228L15.3439 10.6367C15.476 10.3981 15.7272 10.25 16 10.25ZM16 12.5484L15.2307 13.9378C15.1625 14.061 15.061 14.1625 14.9378 14.2307L13.5484 15L14.9378 15.7693C15.061 15.8375 15.1625 15.939 15.2307 16.0622L16 17.4516L16.7693 16.0622C16.8375 15.939 16.939 15.8375 17.0622 15.7693L18.4516 15L17.0622 14.2307C16.939 14.1625 16.8375 14.061 16.7693 13.9378L16 12.5484Z" fill="white"/>
</svg>
